<svg xmlns="http://www.w3.org/2000/svg" viewBox="0 0 32 32" width="32" height="32">
  <!-- Fondo de la calculadora -->
  <rect x="2" y="2" width="28" height="28" rx="4" ry="4" fill="#2c3e50" stroke="#34495e" stroke-width="1"/>
  
  <!-- Pantalla -->
  <rect x="4" y="4" width="24" height="6" rx="1" ry="1" fill="#1a252f" stroke="#34495e" stroke-width="0.5"/>
  <text x="26" y="8.5" font-family="monospace" font-size="3" fill="#00ff00" text-anchor="end">123</text>
  
  <!-- Botones fila 1 -->
  <rect x="4" y="12" width="5" height="4" rx="0.5" fill="#e74c3c" stroke="#c0392b" stroke-width="0.3"/>
  <text x="6.5" y="14.8" font-family="Arial" font-size="2.5" fill="white" text-anchor="middle">C</text>
  
  <rect x="10" y="12" width="5" height="4" rx="0.5" fill="#f39c12" stroke="#e67e22" stroke-width="0.3"/>
  <text x="12.5" y="14.8" font-family="Arial" font-size="2.5" fill="white" text-anchor="middle">±</text>
  
  <rect x="16" y="12" width="5" height="4" rx="0.5" fill="#f39c12" stroke="#e67e22" stroke-width="0.3"/>
  <text x="18.5" y="14.8" font-family="Arial" font-size="2.5" fill="white" text-anchor="middle">%</text>
  
  <rect x="22" y="12" width="6" height="4" rx="0.5" fill="#f39c12" stroke="#e67e22" stroke-width="0.3"/>
  <text x="25" y="14.8" font-family="Arial" font-size="2.5" fill="white" text-anchor="middle">÷</text>
  
  <!-- Botones fila 2 -->
  <rect x="4" y="17" width="5" height="4" rx="0.5" fill="#95a5a6" stroke="#7f8c8d" stroke-width="0.3"/>
  <text x="6.5" y="19.8" font-family="Arial" font-size="2.5" fill="white" text-anchor="middle">7</text>
  
  <rect x="10" y="17" width="5" height="4" rx="0.5" fill="#95a5a6" stroke="#7f8c8d" stroke-width="0.3"/>
  <text x="12.5" y="19.8" font-family="Arial" font-size="2.5" fill="white" text-anchor="middle">8</text>
  
  <rect x="16" y="17" width="5" height="4" rx="0.5" fill="#95a5a6" stroke="#7f8c8d" stroke-width="0.3"/>
  <text x="18.5" y="19.8" font-family="Arial" font-size="2.5" fill="white" text-anchor="middle">9</text>
  
  <rect x="22" y="17" width="6" height="4" rx="0.5" fill="#f39c12" stroke="#e67e22" stroke-width="0.3"/>
  <text x="25" y="19.8" font-family="Arial" font-size="2.5" fill="white" text-anchor="middle">×</text>
  
  <!-- Botones fila 3 -->
  <rect x="4" y="22" width="5" height="4" rx="0.5" fill="#95a5a6" stroke="#7f8c8d" stroke-width="0.3"/>
  <text x="6.5" y="24.8" font-family="Arial" font-size="2.5" fill="white" text-anchor="middle">4</text>
  
  <rect x="10" y="22" width="5" height="4" rx="0.5" fill="#95a5a6" stroke="#7f8c8d" stroke-width="0.3"/>
  <text x="12.5" y="24.8" font-family="Arial" font-size="2.5" fill="white" text-anchor="middle">5</text>
  
  <rect x="16" y="22" width="5" height="4" rx="0.5" fill="#95a5a6" stroke="#7f8c8d" stroke-width="0.3"/>
  <text x="18.5" y="24.8" font-family="Arial" font-size="2.5" fill="white" text-anchor="middle">6</text>
  
  <rect x="22" y="22" width="6" height="4" rx="0.5" fill="#f39c12" stroke="#e67e22" stroke-width="0.3"/>
  <text x="25" y="24.8" font-family="Arial" font-size="2.5" fill="white" text-anchor="middle">-</text>
  
  <!-- Botones fila 4 -->
  <rect x="4" y="27" width="5" height="3" rx="0.5" fill="#95a5a6" stroke="#7f8c8d" stroke-width="0.3"/>
  <text x="6.5" y="29.3" font-family="Arial" font-size="2.5" fill="white" text-anchor="middle">1</text>
  
  <rect x="10" y="27" width="5" height="3" rx="0.5" fill="#95a5a6" stroke="#7f8c8d" stroke-width="0.3"/>
  <text x="12.5" y="29.3" font-family="Arial" font-size="2.5" fill="white" text-anchor="middle">2</text>
  
  <rect x="16" y="27" width="5" height="3" rx="0.5" fill="#95a5a6" stroke="#7f8c8d" stroke-width="0.3"/>
  <text x="18.5" y="29.3" font-family="Arial" font-size="2.5" fill="white" text-anchor="middle">3</text>
  
  <rect x="22" y="27" width="6" height="3" rx="0.5" fill="#f39c12" stroke="#e67e22" stroke-width="0.3"/>
  <text x="25" y="29.3" font-family="Arial" font-size="2.5" fill="white" text-anchor="middle">+</text>
</svg>